<svg id="logo.svg" xmlns="http://www.w3.org/2000/svg" xmlns:xlink="http://www.w3.org/1999/xlink" width="120" height="28" viewBox="0 0 190 28">
  <defs>
    <style>
      .cls-1, .cls-2 {
        fill: #fff;
        fill-rule: evenodd;
      }

      .cls-2 {
        opacity: 0.4;
      }
    </style>
  </defs>
  <path id="Shape_32_copy_copie_copy" data-name="Shape 32 copy copie copy" class="cls-1" d="M200.862,55.1c-1.321,1.487-5.182,2.635-7.53,2.635A12.37,12.37,0,1,1,206,45.366a12.964,12.964,0,0,1-2,6.672s-1.211,1.438-2,2.2A3.3,3.3,0,0,1,200.862,55.1Zm-7.53-19.762a10.033,10.033,0,1,0,10.274,10.03A10.154,10.154,0,0,0,193.332,35.336Z" transform="translate(-54 -31)"/>
  <path id="Ellipse_26_copy_9" data-name="Ellipse 26 copy 9" class="cls-2" d="M194,53a11.251,11.251,0,0,1-6-2,4.118,4.118,0,0,1-1-2,9.551,9.551,0,0,0,2.6-.69c1.558-.618,2.024-0.834,2.024-0.834l0.111-.962a3.086,3.086,0,0,1-.958-1.954c-0.365.1-.486-0.411-0.507-0.737s-0.212-1.3.234-1.209a4.621,4.621,0,0,1-.125-1.1,3.06,3.06,0,0,1,2.923-2.521,2.8,2.8,0,0,1,2.911,2.52,4.706,4.706,0,0,1-.13,1.1c0.445-.088.252,0.894,0.23,1.209s-0.143.836-.507,0.735a3.074,3.074,0,0,1-.959,1.951l0.11,0.862a14.552,14.552,0,0,0,2.024.913,14.052,14.052,0,0,0,2.338.761L200,49A6.09,6.09,0,0,1,194,53Z" transform="translate(-54 -31)"/>
  <path id="people_copy_4" data-name="people copy 4" class="cls-1" d="M156.406,50.948a6.619,6.619,0,0,0,6.778-6.936,7.274,7.274,0,0,0-7.351-7.178c-1.932,0-1.167-.1-3.333,0H150V56h2.5V51C153.637,51,154.53,50.948,156.406,50.948ZM155.833,48.5H152.5V39.333h3.333c2.757,0,5.106,1.691,5.106,4.679S158.59,48.5,155.833,48.5Zm16.25,2.448c2.217,0,6.25.052,6.25,0.052V48.5H172.5c-2.306,0-4.829-.792-5-3.333h10.833V43.5a6.732,6.732,0,0,0-1.7-4.348,6.087,6.087,0,0,0-4.969-2.319c-4.845,0-6.581,3.27-6.581,7.179A6.609,6.609,0,0,0,172.083,50.948Zm3.75-8.281H167.5c0.114-2.038,1.239-3.333,4.167-3.333C174.793,39.333,175.805,40.684,175.833,42.667ZM226.667,51c1.25,0,1.93.008,3.333,0V48.5c-0.812,0-1.9,0-2.5,0-0.938,0-1.667-1.495-1.667-2.5V31h-2.5V47.667A3.135,3.135,0,0,0,226.667,51Zm-11.927-.052a6.619,6.619,0,0,0,6.777-6.936,7.274,7.274,0,0,0-7.35-7.178c-1.933,0-1.168-.1-3.334,0h-2.5V56h2.5V51C211.97,51,212.864,50.948,214.74,50.948ZM214.167,48.5h-3.334V39.333h3.334c2.757,0,5.1,1.691,5.1,4.679S216.924,48.5,214.167,48.5Zm23.583,2.448c2.217,0,6.25.052,6.25,0.052V48.5h-5.833c-2.306,0-4.83-.792-5-3.333H244V43.5a6.732,6.732,0,0,0-1.7-4.348,6.09,6.09,0,0,0-4.97-2.319c-4.746,0-6.58,3.27-6.58,7.179A6.608,6.608,0,0,0,237.75,50.948Zm3.75-8.281h-8.333c0.113-2.038,1.239-3.333,4.166-3.333C240.46,39.333,241.472,40.684,241.5,42.667Z" transform="translate(-54 -31)"/>
</svg>
